<svg width="32" height="32" viewBox="0 0 32 32" fill="none" xmlns="http://www.w3.org/2000/svg">
<g clip-path="url(#clip0_11_2)">
<path d="M23.091 0.00784257L12.0103 2.17911C11.9218 2.19646 11.8415 2.24273 11.7822 2.31067C11.7228 2.3786 11.6877 2.46433 11.6824 2.5544L11.0008 14.0664C10.997 14.1296 11.008 14.1927 11.033 14.2508C11.0579 14.309 11.096 14.3605 11.1443 14.4013C11.1926 14.4422 11.2498 14.4712 11.3113 14.486C11.3727 14.5009 11.4368 14.5013 11.4985 14.487L14.5835 13.7751C14.8722 13.7084 15.133 13.9627 15.0736 14.2529L14.1571 18.7413C14.0954 19.0434 14.379 19.3016 14.6739 19.212L16.5795 18.6331C16.8748 18.5434 17.1587 18.8024 17.0962 19.1047L15.6397 26.1548C15.5485 26.5959 16.1351 26.8363 16.3796 26.4583L16.5431 26.2058L25.5724 8.18615C25.7236 7.88445 25.4628 7.54042 25.1316 7.60442L21.9559 8.21727C21.6575 8.2748 21.4036 7.99689 21.4878 7.70503L23.5605 0.519967C23.6448 0.22736 23.3898 -0.0506788 23.091 0.00784257Z" fill="url(#paint0_linear_11_2)"/>
<path d="M28.5 7L21.5 11.5L16.7988 31.499C16.4897 32.0518 15.6954 32.055 15.3816 31.5049L12.5 11.5L2.00004 7C1.65812 6.40059 0.281963 3.40071 0.96131 3.52224L15.9509 6.2014C16.0465 6.21849 16.1444 6.21832 16.24 6.2009L30.916 3.52597C31.5932 3.40258 28.8358 6.39935 28.5 7Z" fill="url(#paint1_linear_11_2)"/>
</g>
<defs>
<linearGradient id="paint0_linear_11_2" x1="644.999" y1="59.74" x2="977.211" y2="2338.64" gradientUnits="userSpaceOnUse">
<stop stop-color="#FFEA83"/>
<stop offset="0.08333" stop-color="#FFDD35"/>
<stop offset="1" stop-color="#FFA800"/>
</linearGradient>
<linearGradient id="paint1_linear_11_2" x1="-26.3906" y1="220.877" x2="1588.49" y2="2414.03" gradientUnits="userSpaceOnUse">
<stop stop-color="#41D1FF"/>
<stop offset="1" stop-color="#BD34FE"/>
</linearGradient>
<clipPath id="clip0_11_2">
<rect width="31.88" height="32" fill="white"/>
</clipPath>
</defs>
</svg>
